<svg width="64" height="45" viewBox="0 0 64 45" fill="none" xmlns="http://www.w3.org/2000/svg">
<path d="M9.904 14.976V16H0.72V15.184L8.144 5.824H0.832V4.8H9.712V5.616L2.304 14.976H9.904ZM20.1659 14.976V16H12.2459V4.8H19.9259V5.824H13.4299V9.808H19.2219V10.816H13.4299V14.976H20.1659ZM30.597 16L28.037 12.4C27.749 12.432 27.4503 12.448 27.141 12.448H24.133V16H22.949V4.8H27.141C28.5703 4.8 29.6903 5.14133 30.501 5.824C31.3117 6.50667 31.717 7.44533 31.717 8.64C31.717 9.51467 31.493 10.256 31.045 10.864C30.6077 11.4613 29.9783 11.8933 29.157 12.16L31.893 16H30.597ZM27.109 11.44C28.2183 11.44 29.0663 11.1947 29.653 10.704C30.2397 10.2133 30.533 9.52533 30.533 8.64C30.533 7.73333 30.2397 7.04 29.653 6.56C29.0663 6.06933 28.2183 5.824 27.109 5.824H24.133V11.44H27.109ZM39.4075 16.096C38.2982 16.096 37.2902 15.8507 36.3835 15.36C35.4875 14.8587 34.7835 14.176 34.2715 13.312C33.7702 12.448 33.5195 11.4773 33.5195 10.4C33.5195 9.32267 33.7702 8.352 34.2715 7.488C34.7835 6.624 35.4875 5.94667 36.3835 5.456C37.2902 4.95467 38.2982 4.704 39.4075 4.704C40.5168 4.704 41.5142 4.94933 42.3995 5.44C43.2955 5.93067 43.9995 6.61333 44.5115 7.488C45.0235 8.352 45.2795 9.32267 45.2795 10.4C45.2795 11.4773 45.0235 12.4533 44.5115 13.328C43.9995 14.192 43.2955 14.8693 42.3995 15.36C41.5142 15.8507 40.5168 16.096 39.4075 16.096ZM39.4075 15.04C40.2928 15.04 41.0928 14.8427 41.8075 14.448C42.5222 14.0427 43.0822 13.488 43.4875 12.784C43.8928 12.0693 44.0955 11.2747 44.0955 10.4C44.0955 9.52533 43.8928 8.736 43.4875 8.032C43.0822 7.31733 42.5222 6.76267 41.8075 6.368C41.0928 5.96267 40.2928 5.76 39.4075 5.76C38.5222 5.76 37.7168 5.96267 36.9915 6.368C36.2768 6.76267 35.7115 7.31733 35.2955 8.032C34.8902 8.736 34.6875 9.52533 34.6875 10.4C34.6875 11.2747 34.8902 12.0693 35.2955 12.784C35.7115 13.488 36.2768 14.0427 36.9915 14.448C37.7168 14.8427 38.5222 15.04 39.4075 15.04Z" fill="white"/>
<path d="M5.016 26.592H0.096V22.2H15.6V26.592H10.68V39H5.016V26.592ZM43.9384 22.2L38.5624 39H32.4904L29.7784 30.024L26.9224 39H20.8504L15.4744 22.2H21.3064L24.2344 31.752L27.3304 22.2H32.5384L35.4664 31.872L38.5624 22.2H43.9384ZM53.7463 39.384C51.9383 39.384 50.3143 39.008 48.8743 38.256C47.4343 37.504 46.3063 36.464 45.4903 35.136C44.6743 33.792 44.2663 32.28 44.2663 30.6C44.2663 28.92 44.6743 27.416 45.4903 26.088C46.3063 24.744 47.4343 23.696 48.8743 22.944C50.3143 22.192 51.9383 21.816 53.7463 21.816C55.5543 21.816 57.1783 22.192 58.6183 22.944C60.0583 23.696 61.1863 24.744 62.0023 26.088C62.8183 27.416 63.2263 28.92 63.2263 30.6C63.2263 32.28 62.8183 33.792 62.0023 35.136C61.1863 36.464 60.0583 37.504 58.6183 38.256C57.1783 39.008 55.5543 39.384 53.7463 39.384ZM53.7463 34.8C54.4503 34.8 55.0823 34.632 55.6423 34.296C56.2183 33.944 56.6743 33.456 57.0103 32.832C57.3463 32.192 57.5143 31.448 57.5143 30.6C57.5143 29.752 57.3463 29.016 57.0103 28.392C56.6743 27.752 56.2183 27.264 55.6423 26.928C55.0823 26.576 54.4503 26.4 53.7463 26.4C53.0423 26.4 52.4023 26.576 51.8263 26.928C51.2663 27.264 50.8183 27.752 50.4823 28.392C50.1463 29.016 49.9783 29.752 49.9783 30.6C49.9783 31.448 50.1463 32.192 50.4823 32.832C50.8183 33.456 51.2663 33.944 51.8263 34.296C52.4023 34.632 53.0423 34.8 53.7463 34.8Z" fill="white"/>
</svg>
